<?xml version="1.0" encoding="UTF-8"?>
<svg id="Layer_2" data-name="Layer 2" xmlns="http://www.w3.org/2000/svg" viewBox="0 0 248.45 54.19">
  <defs>
    <style>
      .cls-1 {
        fill: #6636d1;
      }

      .cls-1, .cls-2, .cls-3 {
        stroke-width: 0px;
      }

      .cls-2 {
        fill: #a287e4;
      }

      .cls-3 {
        fill: #8565ff;
      }
    </style>
  </defs>
  <g id="Layer_1-2" data-name="Layer 1">
    <g>
      <path class="cls-2" d="M6.97,32.25h39.01c0-11.36-3.57-18.83-7.77-23.7C33.42,3,26.98,0,20.32,0H6.97v32.25"/>
      <path class="cls-3" d="M6.55,4.82h11.09c7.35,0,14.46,2.55,19.76,7.28,4.63,4.14,8.58,10.5,8.58,20.16H3.21V4.82h3.34Z"/>
      <path class="cls-1" d="M24.47,10.74H0v21.13l8.54,7.88v-7.49h6.22v7.96h8.68v6.22h-7.65l7.95,7.33h.73c11.88,0,21.51-9.63,21.51-21.51h0c0-11.88-9.63-21.51-21.51-21.51Z"/>
      <polygon class="cls-3" points=".85 39.79 .85 46 9.54 46 9.54 53.97 15.76 53.97 15.76 46.47 8.51 39.79 .85 39.79"/>
      <g>
        <path class="cls-1" d="M60.13,53.71h-8.5v-24.92h8.07v6.15c1.28-4.76,4.65-6.79,7.86-6.79,1.07,0,2.3.05,3.69.7l-2.09,8.02c-1.76-.64-3.1-.64-3.85-.64-3.21,0-5.19,1.82-5.19,9.3v8.18Z"/>
        <path class="cls-1" d="M75.26,44.35c2.78,0,5.13,2.03,5.13,4.87s-2.35,4.97-5.13,4.97-5.03-2.09-5.03-4.97,2.3-4.87,5.03-4.87Z"/>
        <path class="cls-1" d="M117.77,45.74c-3.37,5.08-9.09,8.45-15.67,8.45-10.37,0-18.77-8.5-18.77-18.88s8.39-18.93,18.77-18.93c6.58,0,12.35,3.37,15.72,8.45.64-.48-7.43,5.19-7.43,5.19-1.71-2.78-4.81-4.65-8.29-4.65-5.45,0-9.73,4.44-9.73,9.95s4.28,9.89,9.73,9.89c3.53,0,6.58-1.82,8.34-4.6l7.33,5.13Z"/>
        <path class="cls-1" d="M137.29,28.79h8.5v24.92h-8.5v-3.9c-.86,3.15-4.81,4.38-7,4.38-6.68,0-9.95-4.55-9.95-12.3v-13.1h8.5v12.83c0,3.32,2.3,4.33,4.06,4.33,1.92,0,4.38-.86,4.38-4.06v-13.1Z"/>
        <path class="cls-1" d="M149.1,41.2c0-7.91,6.2-13.05,13.21-13.05s13.37,5.13,13.37,13.05-6.26,12.99-13.37,12.99-13.21-5.13-13.21-12.99ZM162.31,46.38c2.83,0,5.19-2.35,5.19-5.19s-2.35-5.19-5.19-5.19-5.19,2.35-5.19,5.19,2.35,5.19,5.19,5.19Z"/>
        <path class="cls-1" d="M189.47,28.79h5.24v6.26h-5.24v18.66h-8.39v-18.66h-4.55v-6.26h4.55v-8.93h8.39v8.93Z"/>
        <path class="cls-1" d="M214.44,28.79h8.5v24.92h-8.5v-2.83c-1.55,2.19-4.17,3.32-6.9,3.32-6.15,0-12.14-4.92-12.14-12.99s5.99-13.05,12.14-13.05c2.51,0,5.35,1.12,6.9,3.32v-2.67ZM209.25,46.44c2.83,0,5.19-2.35,5.19-5.19s-2.35-5.19-5.19-5.19-5.19,2.35-5.19,5.19,2.35,5.19,5.19,5.19Z"/>
        <path class="cls-1" d="M234.38,43.98c-7.81-2.14-7.7-6.58-7.7-8.39,0-3.74,4.6-7.43,10.16-7.43,5.24,0,10.96,2.14,10.91,8.61h-7.97c0-1.55-.91-2.25-2.51-2.25-1.07,0-2.09.43-2.09,1.39,0,.64.32,1.23,1.87,1.6l4.44,1.23c6.42,1.71,6.95,5.94,6.95,7.54,0,5.51-5.99,7.91-11.28,7.91s-10.85-3.1-10.85-8.82h7.97c0,1.07.8,2.57,2.89,2.57,1.39,0,2.62-.64,2.62-1.66,0-.75-.43-.96-2.25-1.44l-3.15-.86Z"/>
      </g>
    </g>
  </g>
</svg>